<?xml version="1.0" encoding="UTF-8" standalone="no"?>
<svg
   xmlns:dc="http://purl.org/dc/elements/1.1/"
   xmlns:cc="http://creativecommons.org/ns#"
   xmlns:rdf="http://www.w3.org/1999/02/22-rdf-syntax-ns#"
   xmlns:svg="http://www.w3.org/2000/svg"
   xmlns="http://www.w3.org/2000/svg"
   xmlns:sodipodi="http://sodipodi.sourceforge.net/DTD/sodipodi-0.dtd"
   xmlns:inkscape="http://www.inkscape.org/namespaces/inkscape"
   width="100%"
   height="100%"
   viewBox="0 0 600 300"
   version="1.1"
   xml:space="preserve"
   style="fill-rule:evenodd;clip-rule:evenodd;stroke-linejoin:round;stroke-miterlimit:2;"
   id="svg39"
   sodipodi:docname="pygfx_logo.svg"
   inkscape:version="1.0.2-2 (e86c870879, 2021-01-15)"><metadata
   id="metadata45"><rdf:RDF><cc:Work
       rdf:about=""><dc:format>image/svg+xml</dc:format><dc:type
         rdf:resource="http://purl.org/dc/dcmitype/StillImage" /><dc:title></dc:title></cc:Work></rdf:RDF></metadata><defs
   id="defs43">
        
    
            
            
        
                
            
                
                
                
                
                
            </defs><sodipodi:namedview
   pagecolor="#ffffff"
   bordercolor="#666666"
   borderopacity="1"
   objecttolerance="10"
   gridtolerance="10"
   guidetolerance="10"
   inkscape:pageopacity="0"
   inkscape:pageshadow="2"
   inkscape:window-width="1920"
   inkscape:window-height="1009"
   id="namedview41"
   showgrid="false"
   inkscape:snap-page="true"
   inkscape:snap-bbox="true"
   inkscape:bbox-nodes="true"
   inkscape:zoom="0.8747177"
   inkscape:cx="176.63082"
   inkscape:cy="255.37946"
   inkscape:window-x="-8"
   inkscape:window-y="-8"
   inkscape:window-maximized="1"
   inkscape:current-layer="svg39"
   inkscape:document-rotation="0" />
    <rect
   id="Artboard1"
   x="0"
   y="0"
   width="600"
   height="300"
   style="fill:none;" />
    
<g
   transform="matrix(1.7275217,0,0,1.7275175,6.5195452,19.572308)"
   id="g11">
                    <g
   id="g9">
                        <g
   transform="translate(0.218,-0.677561)"
   id="g7">
                            <path
   d="m 0,22.16 45.362,12.998 1.322,4.646 -40.889,-11.716 21.145,80.637 1.428,-1.477 58.22,-56.009 -35.261,-10.104 -1.322,-4.646 44.559,12.769 -63.299,60.895 -3.108,3.215 5.595,21.334 c 0.397,0.005 0.751,0.055 1.035,0.142 1.156,0.352 3.54,1.59 3.824,3.732 0.233,1.764 -0.228,2.369 -0.535,2.772 -0.065,0.085 -0.124,0.162 -0.167,0.239 0.423,0.146 1.376,1.621 0.518,2.461 0.832,1.706 1.827,5.357 -0.251,6.116 -1.052,0.635 -1.531,0.852 -2.805,0.926 -2.123,0.627 -3.349,-2.947 -3.697,-4.812 -1.189,-0.165 -1.302,-1.918 -1.049,-2.286 -0.08,-0.036 -0.173,-0.063 -0.276,-0.093 h -0.001 c -0.485,-0.141 -1.217,-0.352 -2.079,-1.909 -1.048,-1.89 0.13,-4.304 0.85,-5.274 0.23,-0.259 0.478,-0.49 0.738,-0.693 l -5.035,-19.205 -0.966,0.999 c -0.787,0.814 -2.086,0.836 -2.9,0.049 -0.814,-0.787 -0.836,-2.085 -0.049,-2.9 l 2.697,-2.79 z m 18.796,97.681 c 0.786,0.816 0.761,2.114 -0.056,2.9 l -2.531,2.435 c -0.817,0.785 -2.115,0.76 -2.9,-0.056 -0.786,-0.816 -0.761,-2.115 0.056,-2.9 l 2.531,-2.435 c 0.817,-0.786 2.115,-0.761 2.9,0.056 z m -7.595,7.306 c 0.786,0.817 0.76,2.115 -0.056,2.9 l -2.531,2.436 c -0.817,0.785 -2.115,0.76 -2.9,-0.056 -0.786,-0.817 -0.761,-2.115 0.056,-2.9 l 2.531,-2.436 c 0.817,-0.785 2.115,-0.76 2.9,0.056 z m 25.622,15.112 c -0.414,-0.016 -0.771,0.494 -0.795,1.138 -0.025,0.645 0.29,1.181 0.705,1.197 0.414,0.016 0.771,-0.494 0.796,-1.138 0.025,-0.645 -0.291,-1.181 -0.706,-1.197 z m -3.771,2.121 c -0.404,-0.503 -0.993,-0.701 -1.317,-0.441 -0.323,0.26 -0.258,0.878 0.146,1.381 0.404,0.504 0.994,0.701 1.317,0.441 0.324,-0.26 0.258,-0.878 -0.146,-1.381 z"
   style="fill:#ffc50f"
   id="path3" />
                            <path
   d="M 44.931,15.948 C 45.705,15.02 47.019,12.677 46.081,10.73 45.308,9.127 44.59,8.874 44.113,8.706 44.011,8.67 43.92,8.638 43.842,8.598 44.115,8.244 44.103,6.487 42.925,6.255 42.684,4.373 41.664,0.735 39.509,1.24 c -1.276,0.002 -1.767,0.191 -2.853,0.764 -2.118,0.64 -1.333,4.341 -0.6,6.092 -0.904,0.79 -0.037,2.317 0.377,2.487 -0.047,0.074 -0.11,0.147 -0.18,0.229 h -10e-4 c -0.329,0.384 -0.824,0.962 -0.691,2.737 0.161,2.155 2.47,3.527 3.604,3.943 0.326,0.121 0.749,0.197 1.229,0.212 l 4.967,17.454 1.322,4.646 -3.817,-1.093 -28.089,23.63 1.152,4.392 30.996,-26.077 2.502,8.793 h 10e-4 L 57.814,78.921 61.162,75.7 52.25,44.381 v 0 l -1.884,-6.62 v 0 l -0.362,-1.272 1.398,0.401 1.911,-1.608 c 0.867,-0.729 0.979,-2.023 0.25,-2.89 -0.73,-0.867 -2.024,-0.978 -2.89,-0.249 l -1.538,1.293 -4.823,-16.952 c 0.215,-0.16 0.422,-0.339 0.619,-0.536 z M 37.555,9.974 c 0.413,0.039 0.798,-0.449 0.86,-1.091 0.062,-0.643 -0.223,-1.196 -0.636,-1.235 -0.413,-0.04 -0.798,0.448 -0.86,1.091 -0.061,0.642 0.223,1.195 0.636,1.235 z m 3.886,-1.902 c 0.375,0.525 0.952,0.756 1.29,0.515 C 43.069,8.346 43.039,7.725 42.664,7.199 42.29,6.674 41.712,6.443 41.375,6.684 41.037,6.925 41.067,7.546 41.441,8.072 Z M 65.83,23.543 c 0.826,-0.775 0.868,-2.072 0.093,-2.899 -0.775,-0.826 -2.073,-0.867 -2.899,-0.092 l -1.555,1.458 c -0.826,0.775 -0.867,2.073 -0.092,2.899 0.775,0.826 2.073,0.867 2.899,0.093 z m -6.217,5.833 c 0.826,-0.775 0.868,-2.073 0.093,-2.899 -0.775,-0.826 -2.073,-0.868 -2.899,-0.093 l -1.554,1.458 c -0.827,0.775 -0.868,2.073 -0.093,2.899 0.775,0.827 2.073,0.868 2.899,0.093 z m -2.555,50.272 -40.852,-11.857 1.212,4.623 36.229,10.515 z m 1.134,4.6 0.194,-0.186 -0.065,0.224 z"
   style="fill:#1389ea"
   id="path5" />
                        </g>
                    </g>
                </g><text
   xml:space="preserve"
   style="font-style:normal;font-variant:normal;font-weight:normal;font-stretch:normal;font-size:200px;line-height:1.25;font-family:'High Tower Text';-inkscape-font-specification:'High Tower Text, Normal';font-variant-ligatures:normal;font-variant-caps:normal;font-variant-numeric:normal;font-variant-east-asian:normal"
   x="112.73277"
   y="227.58163"
   id="text926"><tspan
     sodipodi:role="line"
     id="tspan924"
     x="112.73277"
     y="227.58163">pygfx</tspan></text></svg>
