<?xml version="1.0" encoding="UTF-8" standalone="no"?>
<!DOCTYPE svg PUBLIC "-//W3C//DTD SVG 1.1//EN" "http://www.w3.org/Graphics/SVG/1.1/DTD/svg11.dtd">
<svg width="100%" height="100%" viewBox="0 0 94 94" version="1.1" xmlns="http://www.w3.org/2000/svg" xmlns:xlink="http://www.w3.org/1999/xlink" xml:space="preserve" xmlns:serif="http://www.serif.com/" style="fill-rule:evenodd;clip-rule:evenodd;stroke-linejoin:round;stroke-miterlimit:2;">
    <g transform="matrix(1.07275,0,0,1.07275,-3.67367,-26.4944)">
        <path d="M3.425,24.698L90.887,49.587L26.141,112.119L3.425,24.698ZM11.091,32.543L29.067,101.72C29.067,101.72 80.301,52.238 80.301,52.238L11.091,32.543Z" style="fill:url(#_Linear1);"/>
    </g>
    <g transform="matrix(0.232781,0.428625,-0.428625,0.232781,56.4054,8.70019)">
        <path d="M5.706,14.894L27.895,105.28L16.138,102.362L-3.429,24.225L5.706,14.894Z" style="fill:url(#_Linear2);"/>
    </g>
    <g transform="matrix(0.232781,0.428625,-0.428625,0.232781,56.4054,8.70019)">
        <path d="M18.271,115.235L84.098,49.324L87.238,60.647L29.755,118.085L18.271,115.235Z" style="fill:url(#_Linear3);"/>
    </g>
    <g transform="matrix(0.232781,0.428625,-0.428625,0.232781,56.4054,8.70019)">
        <path d="M18.355,19.098L93.738,39.254L97.538,52.957L9.245,28.404L18.355,19.098Z" style="fill:url(#_Linear4);"/>
    </g>
    <defs>
        <linearGradient id="_Linear1" x1="0" y1="0" x2="1" y2="0" gradientUnits="userSpaceOnUse" gradientTransform="matrix(56.5574,51.8885,-51.864,56.5307,4.22281,25.4148)"><stop offset="0" style="stop-color:rgb(255,234,92);stop-opacity:1"/><stop offset="1" style="stop-color:rgb(255,196,50);stop-opacity:1"/></linearGradient>
        <linearGradient id="_Linear2" x1="0" y1="0" x2="1" y2="0" gradientUnits="userSpaceOnUse" gradientTransform="matrix(77.5296,-20.4899,20.4802,77.493,14.6633,67.7559)"><stop offset="0" style="stop-color:rgb(56,126,185);stop-opacity:1"/><stop offset="1" style="stop-color:rgb(54,108,153);stop-opacity:1"/></linearGradient>
        <linearGradient id="_Linear3" x1="0" y1="0" x2="1" y2="0" gradientUnits="userSpaceOnUse" gradientTransform="matrix(77.5296,-20.4899,20.4802,77.493,14.6633,67.7559)"><stop offset="0" style="stop-color:rgb(56,126,185);stop-opacity:1"/><stop offset="1" style="stop-color:rgb(54,108,153);stop-opacity:1"/></linearGradient>
        <linearGradient id="_Linear4" x1="0" y1="0" x2="1" y2="0" gradientUnits="userSpaceOnUse" gradientTransform="matrix(77.5296,-20.4899,20.4802,77.493,14.6633,67.7559)"><stop offset="0" style="stop-color:rgb(56,126,185);stop-opacity:1"/><stop offset="1" style="stop-color:rgb(54,108,153);stop-opacity:1"/></linearGradient>
    </defs>
</svg>
