<svg width="95" height="151" viewBox="0 0 95 151" fill="none" xmlns="http://www.w3.org/2000/svg">
<g clip-path="url(#clip0_46_43)">
<path fill-rule="evenodd" clip-rule="evenodd" d="M0 22.1602L45.3617 35.1585L46.6837 39.8044L5.79493 28.0877L26.9399 108.725L28.3676 107.248L86.5878 51.2389L51.3271 41.1349L50.0051 36.4891L94.564 49.2575L31.2651 110.153L28.1572 113.368L33.7516 134.702C34.1488 134.707 34.5027 134.757 34.7871 134.844C35.9434 135.196 38.3271 136.434 38.6107 138.576C38.8444 140.34 38.3829 140.945 38.0761 141.348C38.0106 141.433 37.9521 141.51 37.9089 141.587C38.3318 141.733 39.2847 143.208 38.4274 144.048C39.2587 145.754 40.2543 149.405 38.1756 150.164C37.1244 150.799 36.6446 151.016 35.3707 151.09C33.2484 151.717 32.022 148.143 31.6742 146.278C30.4852 146.113 30.3724 144.36 30.6254 143.992C30.545 143.956 30.4524 143.929 30.3486 143.899L30.3484 143.899C29.8625 143.758 29.1314 143.547 28.2685 141.99C27.2212 140.1 28.3991 137.686 29.119 136.716C29.3487 136.457 29.5968 136.226 29.8573 136.023L24.8215 116.818L23.8562 117.817C23.0689 118.631 21.7705 118.653 20.9561 117.866C20.1417 117.079 20.1197 115.781 20.907 114.966L23.6041 112.176L0 22.1602ZM18.7963 119.841C19.5816 120.657 19.5565 121.955 18.7402 122.741L16.2085 125.176C15.3922 125.961 14.0939 125.936 13.3086 125.12C12.5233 124.304 12.5484 123.005 13.3647 122.22L15.8964 119.785C16.7127 118.999 18.011 119.024 18.7963 119.841ZM11.2013 127.147C11.9866 127.964 11.9615 129.262 11.1452 130.047L8.61357 132.483C7.79727 133.268 6.49892 133.243 5.71362 132.427C4.92832 131.61 4.95345 130.312 5.76975 129.527L8.3014 127.091C9.1177 126.306 10.416 126.331 11.2013 127.147ZM36.8234 142.259C36.4088 142.243 36.0524 142.753 36.0275 143.397C36.0025 144.042 36.3183 144.578 36.7329 144.594C37.1474 144.61 37.5038 144.1 37.5288 143.456C37.5537 142.811 37.2379 142.275 36.8234 142.259ZM33.0523 144.38C32.6483 143.877 32.0586 143.679 31.7351 143.939C31.4116 144.199 31.4768 144.817 31.8808 145.32C32.2847 145.824 32.8745 146.021 33.198 145.761C33.5215 145.501 33.4563 144.883 33.0523 144.38Z" fill="#FFC50F"/>
<path fill-rule="evenodd" clip-rule="evenodd" d="M44.9307 15.9476C45.7048 15.0195 47.0185 12.6767 46.0807 10.7304C45.3081 9.12688 44.5903 8.87411 44.1131 8.70609C44.0111 8.67018 43.9201 8.63813 43.8419 8.5976C44.1155 8.24372 44.1029 6.48744 42.9253 6.25548C42.6844 4.37308 41.664 0.734611 39.5093 1.23991C38.2333 1.24163 37.7418 1.4308 36.6562 2.00431C34.5375 2.64406 35.3232 6.34541 36.0558 8.09605C35.152 8.88574 36.0191 10.413 36.433 10.5827C36.3856 10.6569 36.3228 10.7301 36.2525 10.8122L36.2524 10.8123C35.9232 11.1963 35.428 11.7742 35.5606 13.5492C35.7216 15.7036 38.0307 17.0757 39.1651 17.4924C39.4908 17.613 39.9141 17.6889 40.3939 17.7036L45.3607 35.1583L46.6827 39.8041L42.8661 38.7105L14.777 62.341L15.9286 66.7326L46.9251 40.6561L49.4272 49.4493L49.4275 49.4492L57.8136 78.9205L61.1618 75.6995L52.2501 44.3812L52.2498 44.3813L50.3661 37.7614L50.3662 37.7613L50.0041 36.4888L51.4024 36.8895L53.3134 35.2819C54.1801 34.5527 54.2917 33.2589 53.5625 32.3921C52.8333 31.5253 51.5395 31.4138 50.6727 32.143L49.1354 33.4363L44.3116 16.4841C44.5267 16.3237 44.7341 16.1452 44.9307 15.9476ZM37.5552 9.97358C37.9682 10.0133 38.353 9.52478 38.4147 8.8825C38.4765 8.24021 38.1917 7.68736 37.7788 7.64766C37.3658 7.60796 36.9809 8.09646 36.9192 8.73874C36.8575 9.38103 37.1422 9.93388 37.5552 9.97358ZM41.4411 8.07159C41.8157 8.59695 42.3932 8.82758 42.731 8.58671C43.0688 8.34584 43.039 7.72469 42.6644 7.19932C42.2898 6.67396 41.7123 6.44333 41.3745 6.6842C41.0367 6.92506 41.0665 7.54622 41.4411 8.07159ZM65.8302 23.5434C66.6563 22.7684 66.6977 21.4705 65.9227 20.6444C65.1477 19.8183 63.8498 19.7769 63.0237 20.5519L61.4695 22.01C60.6434 22.7849 60.602 24.0829 61.377 24.909C62.1519 25.7351 63.4499 25.7765 64.276 25.0015L65.8302 23.5434ZM59.6132 29.3758C60.4393 28.6008 60.4808 27.3029 59.7058 26.4768C58.9308 25.6507 57.6328 25.6093 56.8068 26.3843L55.2525 27.8424C54.4264 28.6174 54.385 29.9153 55.16 30.7414C55.935 31.5675 57.2329 31.6089 58.059 30.8339L59.6132 29.3758ZM57.0578 79.6477L16.206 67.7906L17.4183 72.4137L53.647 82.9289L57.0578 79.6477ZM58.1923 84.2482L58.386 84.0617L58.3211 84.2856L58.1923 84.2482Z" fill="#1389EA"/>
</g>
<defs>
<clipPath id="clip0_46_43">
<rect width="95" height="151" fill="white"/>
</clipPath>
</defs>
</svg>
